<svg width="32" height="32" viewBox="0 0 32 32" fill="none" xmlns="http://www.w3.org/2000/svg">
<path d="M20.0324 2.43768H9.45072C9.10002 2.43768 8.76368 2.57373 8.51569 2.81591C8.2677 3.05808 8.12839 3.38654 8.12839 3.72903V9.21893L20.0324 16.0002L25.9844 18.4531L31.9364 16.0002V9.21893L20.0324 2.43768Z" fill="#21A366"/>
<path d="M8.12839 9.21893H20.0324V16.0002H8.12839V9.21893Z" fill="#107C41"/>
<path d="M30.614 2.43768H20.0324V9.21893H31.9364V3.72903C31.9364 3.38654 31.7971 3.05808 31.5491 2.81591C31.3011 2.57373 30.9647 2.43768 30.614 2.43768Z" fill="#33C481"/>
<path d="M20.0324 16.0002H8.12839V28.2713C8.12839 28.6138 8.2677 28.9423 8.51569 29.1845C8.76368 29.4266 9.10002 29.5627 9.45072 29.5627H30.6141C30.9648 29.5627 31.3011 29.4266 31.5491 29.1845C31.7971 28.9423 31.9364 28.6138 31.9364 28.2713V22.7814L20.0324 16.0002Z" fill="#185C37"/>
<path d="M20.0324 16.0002H31.9364V22.7814H20.0324V16.0002Z" fill="#107C41"/>
<path opacity="0.1" d="M16.7261 7.28143H8.12839V25.6877H16.7261C17.0764 25.6867 17.4122 25.5503 17.6599 25.3083C17.9077 25.0664 18.0473 24.7385 18.0484 24.3963V8.57278C18.0473 8.23061 17.9077 7.90274 17.6599 7.66079C17.4122 7.41884 17.0764 7.28246 16.7261 7.28143Z" fill="black"/>
<path opacity="0.2" d="M15.7341 8.25018H8.12839V26.6564H15.7341C16.0844 26.6554 16.4202 26.519 16.6679 26.2771C16.9157 26.0351 17.0553 25.7073 17.0564 25.3651V9.54153C17.0553 9.19936 16.9157 8.87149 16.6679 8.62954C16.4202 8.38759 16.0844 8.25121 15.7341 8.25018Z" fill="black"/>
<path opacity="0.2" d="M15.7341 8.25018H8.12839V24.7189H15.7341C16.0844 24.7179 16.4202 24.5815 16.6679 24.3396C16.9157 24.0976 17.0553 23.7698 17.0564 23.4276V9.54153C17.0553 9.19936 16.9157 8.87149 16.6679 8.62954C16.4202 8.38759 16.0844 8.25121 15.7341 8.25018Z" fill="black"/>
<path opacity="0.2" d="M14.7421 8.25018H8.12839V24.7189H14.7421C15.0924 24.7179 15.4282 24.5815 15.6759 24.3396C15.9237 24.0976 16.0633 23.7698 16.0644 23.4276V9.54153C16.0633 9.19936 15.9237 8.87149 15.6759 8.62954C15.4282 8.38759 15.0924 8.25121 14.7421 8.25018Z" fill="black"/>
<path d="M1.51472 8.25018H14.742C15.0928 8.25018 15.4291 8.38623 15.6771 8.62841C15.9251 8.87058 16.0644 9.19904 16.0644 9.54153V22.4588C16.0644 22.8013 15.9251 23.1298 15.6771 23.372C15.4291 23.6141 15.0928 23.7502 14.742 23.7502H1.51472C1.16401 23.7502 0.827672 23.6141 0.579686 23.372C0.3317 23.1298 0.192383 22.8013 0.192383 22.4588L0.192383 9.54153C0.192383 9.19904 0.3317 8.87058 0.579686 8.62841C0.827672 8.38623 1.16401 8.25018 1.51472 8.25018Z" fill="#107C41"/>
<path d="M3.69711 20.8439L6.90723 15.9866L3.96694 11.1564H6.33286L7.93791 14.2438C8.08539 14.5364 8.1869 14.7547 8.24246 14.8987H8.26329C8.3691 14.6649 8.47988 14.4376 8.59561 14.2167L10.3108 11.1564H12.4823L9.46659 15.9595L12.5586 20.8439H10.2473L8.39324 17.4533C8.30589 17.3089 8.23186 17.1572 8.17202 16.9999H8.14425C8.09014 17.1537 8.01826 17.3009 7.92998 17.4388L6.02236 20.8439H3.69711Z" fill="white"/>
</svg>
