<svg width="17" height="16" viewBox="0 0 17 16" fill="none" xmlns="http://www.w3.org/2000/svg">
<path fill-rule="evenodd" clip-rule="evenodd" d="M14.8626 8.00005C14.8626 8.36824 14.5641 8.66672 14.1959 8.66672H2.88221C2.51402 8.66672 2.21554 8.36824 2.21554 8.00005C2.21554 7.63186 2.51402 7.33339 2.88221 7.33339H14.1959C14.5641 7.33339 14.8626 7.63186 14.8626 8.00005Z" fill="black"/>
<path fill-rule="evenodd" clip-rule="evenodd" d="M8.53906 1.67653C8.90725 1.67653 9.20573 1.97501 9.20573 2.3432L9.20573 13.6569C9.20573 14.0251 8.90725 14.3236 8.53906 14.3236C8.17087 14.3236 7.8724 14.0251 7.8724 13.6569L7.8724 2.3432C7.8724 1.97501 8.17087 1.67653 8.53906 1.67653Z" fill="black"/>
</svg>
