<svg width="20" height="21" viewBox="0 0 20 21" fill="none" xmlns="http://www.w3.org/2000/svg">
<g clip-path="url(#clip0_12_4839)">
<path d="M10 13C11.3807 13 12.5 11.8807 12.5 10.5C12.5 9.11929 11.3807 8 10 8C8.61929 8 7.5 9.11929 7.5 10.5C7.5 11.8807 8.61929 13 10 13Z" stroke="#64748B" stroke-width="2" stroke-linecap="round" stroke-linejoin="round"/>
<path d="M16.1673 13C16.0564 13.2514 16.0233 13.5302 16.0723 13.8005C16.1213 14.0708 16.2502 14.3203 16.4423 14.5167L16.4923 14.5667C16.6473 14.7215 16.7702 14.9053 16.8541 15.1076C16.938 15.3099 16.9811 15.5268 16.9811 15.7458C16.9811 15.9649 16.938 16.1817 16.8541 16.3841C16.7702 16.5864 16.6473 16.7702 16.4923 16.925C16.3375 17.08 16.1537 17.2029 15.9514 17.2868C15.7491 17.3706 15.5322 17.4138 15.3131 17.4138C15.0941 17.4138 14.8772 17.3706 14.6749 17.2868C14.4726 17.2029 14.2888 17.08 14.134 16.925L14.084 16.875C13.8876 16.6829 13.6381 16.554 13.3678 16.505C13.0975 16.456 12.8187 16.4891 12.5673 16.6C12.3208 16.7056 12.1106 16.881 11.9626 17.1046C11.8145 17.3282 11.7351 17.5902 11.734 17.8583V18C11.734 18.442 11.5584 18.866 11.2458 19.1785C10.9333 19.4911 10.5093 19.6667 10.0673 19.6667C9.62529 19.6667 9.20137 19.4911 8.88881 19.1785C8.57625 18.866 8.40065 18.442 8.40065 18V17.925C8.3942 17.6492 8.30492 17.3817 8.14441 17.1573C7.9839 16.9328 7.7596 16.7619 7.50065 16.6667C7.2493 16.5557 6.97049 16.5227 6.70016 16.5717C6.42983 16.6207 6.18038 16.7496 5.98398 16.9417L5.93398 16.9917C5.7792 17.1466 5.59538 17.2696 5.39305 17.3534C5.19072 17.4373 4.97384 17.4805 4.75482 17.4805C4.53579 17.4805 4.31891 17.4373 4.11658 17.3534C3.91425 17.2696 3.73044 17.1466 3.57565 16.9917C3.42069 16.8369 3.29776 16.6531 3.21388 16.4507C3.13001 16.2484 3.08684 16.0315 3.08684 15.8125C3.08684 15.5935 3.13001 15.3766 3.21388 15.1743C3.29776 14.9719 3.42069 14.7881 3.57565 14.6333L3.62565 14.5833C3.81776 14.3869 3.94664 14.1375 3.99565 13.8672C4.04467 13.5968 4.01158 13.318 3.90065 13.0667C3.79501 12.8202 3.61961 12.61 3.39604 12.4619C3.17246 12.3139 2.91047 12.2344 2.64232 12.2333H2.50065C2.05862 12.2333 1.6347 12.0577 1.32214 11.7452C1.00958 11.4326 0.833984 11.0087 0.833984 10.5667C0.833984 10.1246 1.00958 9.70073 1.32214 9.38817C1.6347 9.0756 2.05862 8.90001 2.50065 8.90001H2.57565C2.85148 8.89356 3.11899 8.80427 3.3434 8.64377C3.56781 8.48326 3.73875 8.25896 3.83398 8.00001C3.94491 7.74866 3.978 7.46985 3.92899 7.19952C3.87997 6.92919 3.7511 6.67974 3.55898 6.48334L3.50898 6.43334C3.35402 6.27855 3.23109 6.09474 3.14722 5.89241C3.06334 5.69008 3.02017 5.4732 3.02017 5.25418C3.02017 5.03515 3.06334 4.81827 3.14722 4.61594C3.23109 4.41361 3.35402 4.2298 3.50898 4.07501C3.66377 3.92005 3.84759 3.79712 4.04992 3.71324C4.25225 3.62937 4.46912 3.5862 4.68815 3.5862C4.90718 3.5862 5.12405 3.62937 5.32638 3.71324C5.52871 3.79712 5.71253 3.92005 5.86732 4.07501L5.91732 4.12501C6.11372 4.31712 6.36316 4.446 6.63349 4.49501C6.90382 4.54403 7.18264 4.51094 7.43398 4.40001H7.50065C7.74712 4.29437 7.95733 4.11897 8.10539 3.8954C8.25346 3.67182 8.33291 3.40983 8.33398 3.14168V3.00001C8.33398 2.55798 8.50958 2.13406 8.82214 1.8215C9.1347 1.50894 9.55862 1.33334 10.0007 1.33334C10.4427 1.33334 10.8666 1.50894 11.1792 1.8215C11.4917 2.13406 11.6673 2.55798 11.6673 3.00001V3.07501C11.6684 3.34317 11.7478 3.60516 11.8959 3.82873C12.044 4.05231 12.2542 4.22771 12.5006 4.33334C12.752 4.44427 13.0308 4.47736 13.3011 4.42835C13.5715 4.37933 13.8209 4.25046 14.0173 4.05834L14.0673 4.00834C14.2221 3.85338 14.4059 3.73045 14.6082 3.64658C14.8106 3.5627 15.0275 3.51953 15.2465 3.51953C15.4655 3.51953 15.6824 3.5627 15.8847 3.64658C16.087 3.73045 16.2709 3.85338 16.4256 4.00834C16.5806 4.16313 16.7035 4.34695 16.7874 4.54928C16.8713 4.75161 16.9145 4.96848 16.9145 5.18751C16.9145 5.40654 16.8713 5.62341 16.7874 5.82574C16.7035 6.02807 16.5806 6.21189 16.4256 6.36668L16.3756 6.41668C16.1835 6.61308 16.0547 6.86252 16.0056 7.13285C15.9566 7.40318 15.9897 7.682 16.1006 7.93334V8.00001C16.2063 8.24648 16.3817 8.45669 16.6053 8.60475C16.8288 8.75282 17.0908 8.83227 17.359 8.83334H17.5006C17.9427 8.83334 18.3666 9.00894 18.6792 9.3215C18.9917 9.63406 19.1673 10.058 19.1673 10.5C19.1673 10.942 18.9917 11.366 18.6792 11.6785C18.3666 11.9911 17.9427 12.1667 17.5006 12.1667H17.4256C17.1575 12.1677 16.8955 12.2472 16.6719 12.3953C16.4484 12.5433 16.273 12.7535 16.1673 13V13Z" stroke="#64748B" stroke-width="2" stroke-linecap="round" stroke-linejoin="round"/>
</g>
<defs>
<clipPath id="clip0_12_4839">
<rect width="20" height="20" fill="white" transform="translate(0 0.5)"/>
</clipPath>
</defs>
</svg>
