<svg width="16" height="16" viewBox="0 0 16 16" fill="none" xmlns="http://www.w3.org/2000/svg">
<path fill-rule="evenodd" clip-rule="evenodd" d="M15.3581 0.862273C15.5392 1.04336 15.6006 1.31219 15.516 1.55391L10.8493 14.8872C10.759 15.1452 10.5203 15.322 10.2472 15.3331C9.97411 15.3443 9.72186 15.1876 9.61085 14.9378L7.04832 9.17208L1.28263 6.60955C1.03284 6.49853 0.876134 6.24629 0.887276 5.97317C0.898419 5.70005 1.07515 5.46141 1.33316 5.37111L14.6665 0.704439C14.9082 0.619835 15.177 0.681181 15.3581 0.862273ZM3.36077 6.07408L7.82415 8.0578C7.97497 8.12483 8.09556 8.24543 8.1626 8.39625L10.1463 12.8596L13.8001 2.42032L3.36077 6.07408Z" fill="black"/>
</svg>
