<svg width="20" height="21" viewBox="0 0 20 21" fill="none" xmlns="http://www.w3.org/2000/svg">
<path fill-rule="evenodd" clip-rule="evenodd" d="M2.47429 13.3871C3.2557 12.6057 4.3155 12.1667 5.42057 12.1667H10.4206C11.5256 12.1667 12.5855 12.6057 13.3669 13.3871C14.1483 14.1685 14.5872 15.2283 14.5872 16.3334V18C14.5872 18.4603 14.2141 18.8334 13.7539 18.8334C13.2937 18.8334 12.9206 18.4603 12.9206 18V16.3334C12.9206 15.6703 12.6572 15.0344 12.1883 14.5656C11.7195 14.0967 11.0836 13.8334 10.4206 13.8334H5.42057C4.75753 13.8334 4.12165 14.0967 3.65281 14.5656C3.18396 15.0344 2.92057 15.6703 2.92057 16.3334V18C2.92057 18.4603 2.54748 18.8334 2.08724 18.8334C1.627 18.8334 1.25391 18.4603 1.25391 18V16.3334C1.25391 15.2283 1.69289 14.1685 2.47429 13.3871Z" fill="#64748B"/>
<path fill-rule="evenodd" clip-rule="evenodd" d="M7.92057 3.83335C6.53986 3.83335 5.42057 4.95264 5.42057 6.33335C5.42057 7.71407 6.53986 8.83335 7.92057 8.83335C9.30128 8.83335 10.4206 7.71407 10.4206 6.33335C10.4206 4.95264 9.30128 3.83335 7.92057 3.83335ZM3.75391 6.33335C3.75391 4.03217 5.61939 2.16669 7.92057 2.16669C10.2218 2.16669 12.0872 4.03217 12.0872 6.33335C12.0872 8.63454 10.2218 10.5 7.92057 10.5C5.61939 10.5 3.75391 8.63454 3.75391 6.33335Z" fill="#64748B"/>
<path fill-rule="evenodd" clip-rule="evenodd" d="M15.4485 12.9C15.5636 12.4544 16.0181 12.1864 16.4637 12.3014C17.3576 12.5322 18.1496 13.0534 18.7152 13.783C19.2808 14.5127 19.5881 15.4095 19.5887 16.3327L19.5887 18C19.5887 18.4602 19.2156 18.8333 18.7554 18.8333C18.2952 18.8333 17.9221 18.4602 17.9221 18L17.9221 16.3339C17.9221 16.3339 17.9221 16.334 17.9221 16.3339C17.9216 15.7801 17.7372 15.2419 17.3979 14.8041C17.0586 14.3663 16.5834 14.0537 16.0471 13.9152C15.6015 13.8001 15.3335 13.3456 15.4485 12.9Z" fill="#64748B"/>
<path fill-rule="evenodd" clip-rule="evenodd" d="M12.9481 2.90161C13.0623 2.45576 13.5163 2.18687 13.9621 2.30102C14.8584 2.5305 15.6528 3.05175 16.2201 3.7826C16.7874 4.51344 17.0953 5.4123 17.0953 6.33748C17.0953 7.26266 16.7874 8.16152 16.2201 8.89237C15.6528 9.62321 14.8584 10.1445 13.9621 10.3739C13.5163 10.4881 13.0623 10.2192 12.9481 9.77335C12.834 9.32749 13.1029 8.87351 13.5487 8.75936C14.0865 8.62167 14.5631 8.30892 14.9035 7.87041C15.2439 7.43191 15.4286 6.89259 15.4286 6.33748C15.4286 5.78238 15.2439 5.24306 14.9035 4.80455C14.5631 4.36604 14.0865 4.05329 13.5487 3.91561C13.1029 3.80145 12.834 3.34747 12.9481 2.90161Z" fill="#64748B"/>
</svg>
